<?xml version="1.0" encoding="UTF-8" standalone="no"?>
<!-- Created with Inkscape (http://www.inkscape.org/) -->

<svg
   width="400mm"
   height="400mm"
   viewBox="0 0 400 400"
   version="1.1"
   id="svg1"
   xml:space="preserve"
   inkscape:version="1.3.2 (091e20e, 2023-11-25)"
   sodipodi:docname="readerLogo.svg"
   xmlns:inkscape="http://www.inkscape.org/namespaces/inkscape"
   xmlns:sodipodi="http://sodipodi.sourceforge.net/DTD/sodipodi-0.dtd"
   xmlns="http://www.w3.org/2000/svg"
   xmlns:svg="http://www.w3.org/2000/svg"><sodipodi:namedview
     id="namedview1"
     pagecolor="#00ffff"
     bordercolor="#ff0000"
     borderopacity="0.24705882"
     inkscape:showpageshadow="2"
     inkscape:pageopacity="0.0"
     inkscape:pagecheckerboard="0"
     inkscape:deskcolor="#d1d1d1"
     inkscape:document-units="mm"
     inkscape:zoom="0.15785459"
     inkscape:cx="205.88568"
     inkscape:cy="652.49923"
     inkscape:window-width="1312"
     inkscape:window-height="847"
     inkscape:window-x="0"
     inkscape:window-y="25"
     inkscape:window-maximized="0"
     inkscape:current-layer="layer1" /><defs
     id="defs1" /><g
     inkscape:label="Layer 1"
     inkscape:groupmode="layer"
     id="layer1"><path
       style="fill:#000000"
       d="m 193.3247,365.49854 c -10.15487,-3.32495 -14.10697,-6.82593 -19.21939,-17.02551 l -3.43864,-6.8603 v -6.20591 c 0,-7.18734 2.47343,-12.67914 7.4865,-16.62243 L 181.69296,316 h 7.28685 7.28686 l 4.53333,4.53333 4.53333,4.53334 v 4.56248 c 0,2.50936 -0.97256,7.4168 -2.16125,10.90541 l -2.16125,6.34293 1.30172,1.30173 c 4.41131,4.41131 11.88633,-2.49233 13.77789,-12.72472 l 1.4161,-7.66037 -1.33975,-13.37243 c -1.58233,-15.79381 -0.52802,-14.30337 -9.29723,-13.14309 -9.80159,1.29687 -20.67751,-0.59737 -30.30383,-5.27798 l -8.10094,-3.93892 -7.41882,-7.77785 c -11.83369,-12.40639 -18.79265,-28.50975 -20.46746,-47.36269 l -0.85175,-9.58784 1.58568,-8.66666 c 3.25941,-17.81457 14.43879,-40.16992 30.11496,-60.22073 6.8585,-8.77246 6.83057,-8.56007 2.90593,-22.09773 l -3,-10.34821 0.0409,-20 0.0409,-20 2.29924,-8.666667 c 1.26459,-4.766666 4.69478,-13.555174 7.62264,-19.530017 l 5.3234,-10.863351 7.60861,-6.953844 7.60862,-6.953844 3.1255,3.817195 c 9.62208,11.751491 15.5647,25.787769 17.52197,41.386307 l 1.20071,9.569112 -1.23128,11.005474 c -2.06439,18.451865 -10.44952,40.209165 -23.06826,59.856305 l -5.56632,8.66666 2.73669,11.73661 2.73668,11.7366 10.66667,0.29652 10.66667,0.29653 7.24461,3.96687 c 9.42222,5.15925 18.688,14.6566 23.11006,23.68762 l 3.52966,7.2085 0.87624,8.55259 c 2.42886,23.70711 -7.49692,47.5787 -24.16042,58.10598 -6.80444,4.29876 -6.58315,3.13214 -3.81137,20.0932 1.1823,7.23472 1.86841,17.15875 1.54923,22.40855 l -0.57289,9.42289 -3.86433,7.10005 c -2.19475,4.03247 -5.96992,8.49346 -8.73782,10.32517 l -4.8735,3.22512 -7.14474,0.54833 c -3.9296,0.30158 -8.64862,0.0559 -10.4867,-0.54592 z m 16.82857,-84.7505 c 0.88208,-2.29867 -0.72915,-10.78246 -7.09511,-37.35869 l -4.77731,-19.94398 -3.76621,4.51131 c -2.07141,2.48122 -4.80751,6.65601 -6.08021,9.27732 l -2.314,4.766 0.0614,7.66667 c 0.0338,4.21666 -0.43956,7.66666 -1.05185,7.66666 -2.27849,0 -9.27151,-11.40975 -11.32736,-18.48163 l -2.12752,-7.31843 0.73927,-7.16284 c 0.89774,-8.69828 5.58246,-17.11467 13.11538,-23.56256 l 5.54855,-4.74935 -2.35388,-8.69593 c -1.29463,-4.78276 -2.76341,-8.69592 -3.26395,-8.69592 -3.71042,0 -21.47402,33.29968 -24.90247,46.68221 l -2.20266,8.59781 0.60537,9.43297 0.60538,9.43296 4.45674,8.36171 c 8.00218,15.01362 18.32256,21.19882 35.68568,21.38707 l 9.70852,0.10527 z m 17.76499,-8.16614 c 2.89259,-2.61329 6.2736,-7.40744 7.51335,-10.65366 l 2.25408,-5.90223 -0.63355,-9.87206 -0.63355,-9.87206 -3.45772,-5.90016 -3.45773,-5.90016 -5.16646,-2.32975 -5.16647,-2.32975 -5.60864,0.4223 c -3.08475,0.23226 -5.69799,0.89625 -5.80719,1.47552 -0.4151,2.20178 12.92594,55.61344 13.89098,55.61344 0.5575,0 3.3803,-2.13814 6.2729,-4.75143 z M 198.34543,121.62937 c 3.06829,-5.75856 6.54494,-14.63094 7.72589,-19.7164 l 2.14719,-9.246303 -0.89204,-7.161475 c -1.02492,-8.228272 -3.48154,-15.800751 -6.73863,-20.771697 l -2.2634,-3.454385 -3.16449,4.289232 c -1.74047,2.359078 -4.49992,7.621279 -6.13209,11.693779 l -2.9676,7.404546 -0.0301,20.666663 c -0.0166,11.36667 0.45803,22.97513 1.05466,25.79659 l 1.08479,5.12991 2.29857,-2.08018 c 1.26422,-1.1441 4.80899,-6.79172 7.87728,-12.55028 z"
       id="path1" /></g></svg>
